REM MD5 20716f1c0bd2589f85b0c38ad4cd4296
FILE "Jewel Bem Hunter Lime with Paint Maker (Japan).bin" BINARY
  TRACK 01 MODE2/2352
    INDEX 01 00:00:00
  TRACK 02 AUDIO
    INDEX 00 24:27:29
    INDEX 01 24:29:29
  TRACK 03 AUDIO
    INDEX 00 29:20:56
    INDEX 01 29:22:56
  TRACK 04 AUDIO
    INDEX 00 34:07:23
    INDEX 01 34:09:23
REM LEADOUT 37:46:42
